<svg xmlns="http://www.w3.org/2000/svg" xmlns:xlink="http://www.w3.org/1999/xlink" width="2144.87" height="1417.52" viewBox="0 0 2144.87 1417.52">
  <defs>
    <style>
      .cls-1 {
        fill: url(#linear-gradient);
      }

      .cls-2 {
        fill: #7d97f4;
      }

      .cls-17, .cls-3 {
        fill: #91b3fa;
      }

      .cls-4 {
        fill: url(#linear-gradient-2);
      }

      .cls-5 {
        fill: url(#linear-gradient-3);
      }

      .cls-6 {
        fill: url(#linear-gradient-4);
      }

      .cls-7 {
        fill: url(#linear-gradient-5);
      }

      .cls-8 {
        fill: #bdd0fb;
      }

      .cls-9 {
        fill: url(#linear-gradient-6);
      }

      .cls-10 {
        fill: url(#linear-gradient-7);
      }

      .cls-11 {
        fill: url(#linear-gradient-8);
      }

      .cls-12 {
        fill: url(#linear-gradient-9);
      }

      .cls-13 {
        fill: url(#linear-gradient-10);
      }

      .cls-14 {
        fill: url(#linear-gradient-11);
      }

      .cls-15, .cls-25, .cls-28 {
        fill: #fff;
      }

      .cls-15 {
        opacity: 0.16;
      }

      .cls-16 {
        fill: url(#linear-gradient-12);
      }

      .cls-17 {
        opacity: 0.52;
      }

      .cls-18 {
        fill: url(#linear-gradient-13);
      }

      .cls-19 {
        fill: url(#linear-gradient-14);
      }

      .cls-20 {
        fill: url(#linear-gradient-15);
      }

      .cls-21 {
        fill: url(#linear-gradient-16);
      }

      .cls-22 {
        fill: url(#linear-gradient-17);
      }

      .cls-23 {
        fill: url(#linear-gradient-18);
      }

      .cls-24 {
        fill: url(#linear-gradient-19);
      }

      .cls-25 {
        opacity: 0.7;
      }

      .cls-26 {
        fill: url(#linear-gradient-20);
      }

      .cls-27 {
        fill: url(#linear-gradient-21);
      }

      .cls-29 {
        fill: url(#linear-gradient-22);
      }

      .cls-30 {
        fill: url(#linear-gradient-23);
      }

      .cls-31 {
        fill: url(#linear-gradient-24);
      }

      .cls-32 {
        fill: url(#linear-gradient-25);
      }

      .cls-33 {
        fill: url(#linear-gradient-26);
      }

      .cls-34 {
        fill: url(#linear-gradient-27);
      }

      .cls-35 {
        fill: url(#linear-gradient-28);
      }

      .cls-36 {
        fill: url(#linear-gradient-29);
      }

      .cls-37 {
        fill: url(#linear-gradient-30);
      }

      .cls-38 {
        fill: url(#linear-gradient-31);
      }

      .cls-39 {
        fill: url(#linear-gradient-32);
      }

      .cls-40 {
        fill: url(#linear-gradient-33);
      }

      .cls-41 {
        fill: url(#linear-gradient-34);
      }

      .cls-42 {
        fill: url(#linear-gradient-35);
      }

      .cls-43 {
        fill: url(#linear-gradient-36);
      }

      .cls-44 {
        fill: url(#linear-gradient-37);
      }

      .cls-45 {
        fill: url(#linear-gradient-38);
      }

      .cls-46 {
        fill: url(#linear-gradient-39);
      }

      .cls-47 {
        fill: url(#linear-gradient-40);
      }

      .cls-48 {
        fill: url(#linear-gradient-41);
      }

      .cls-49 {
        fill: url(#linear-gradient-42);
      }

      .cls-50 {
        fill: url(#linear-gradient-43);
      }

      .cls-51 {
        fill: url(#linear-gradient-44);
      }

      .cls-52 {
        fill: url(#linear-gradient-45);
      }

      .cls-53 {
        fill: url(#linear-gradient-46);
      }

      .cls-54 {
        fill: url(#linear-gradient-47);
      }

      .cls-55 {
        fill: url(#linear-gradient-48);
      }

      .cls-56 {
        fill: url(#linear-gradient-49);
      }

      .cls-57 {
        fill: url(#linear-gradient-50);
      }

      .cls-58 {
        fill: url(#linear-gradient-51);
      }

      .cls-59 {
        fill: url(#linear-gradient-52);
      }

      .cls-60 {
        fill: url(#linear-gradient-53);
      }

      .cls-61 {
        fill: url(#_32);
      }

      .cls-62 {
        fill: url(#linear-gradient-54);
      }

      .cls-63 {
        opacity: 0.2;
        fill: url(#linear-gradient-55);
      }

      .cls-64 {
        fill: url(#linear-gradient-56);
      }

      .cls-65 {
        fill: url(#linear-gradient-57);
      }

      .cls-66 {
        fill: url(#linear-gradient-58);
      }

      .cls-67 {
        fill: url(#linear-gradient-59);
      }

      .cls-68 {
        fill: url(#linear-gradient-60);
      }

      .cls-69 {
        fill: url(#linear-gradient-61);
      }

      .cls-70 {
        fill: url(#linear-gradient-62);
      }

      .cls-71 {
        fill: url(#linear-gradient-63);
      }

      .cls-72 {
        fill: url(#linear-gradient-64);
      }

      .cls-73 {
        fill: url(#linear-gradient-65);
      }

      .cls-74 {
        fill: url(#linear-gradient-66);
      }

      .cls-75 {
        fill: url(#linear-gradient-67);
      }

      .cls-76 {
        fill: url(#linear-gradient-68);
      }

      .cls-77 {
        fill: url(#linear-gradient-69);
      }

      .cls-78 {
        fill: url(#linear-gradient-70);
      }

      .cls-79 {
        fill: url(#linear-gradient-71);
      }

      .cls-80 {
        fill: url(#linear-gradient-72);
      }

      .cls-81 {
        fill: url(#linear-gradient-73);
      }

      .cls-82 {
        fill: url(#linear-gradient-74);
      }

      .cls-83 {
        fill: url(#linear-gradient-75);
      }

      .cls-84 {
        fill: url(#linear-gradient-76);
      }

      .cls-85 {
        fill: url(#linear-gradient-77);
      }

      .cls-86 {
        fill: url(#linear-gradient-78);
      }

      .cls-87 {
        fill: url(#linear-gradient-79);
      }

      .cls-88 {
        fill: url(#linear-gradient-80);
      }

      .cls-89 {
        fill: url(#linear-gradient-81);
      }

      .cls-90 {
        fill: url(#linear-gradient-82);
      }

      .cls-91 {
        fill: url(#linear-gradient-83);
      }

      .cls-92 {
        fill: url(#linear-gradient-84);
      }

      .cls-93 {
        fill: url(#linear-gradient-85);
      }

      .cls-94 {
        fill: url(#linear-gradient-86);
      }

      .cls-95 {
        fill: url(#linear-gradient-87);
      }

      .cls-96 {
        fill: url(#linear-gradient-88);
      }

      .cls-97 {
        fill: url(#linear-gradient-89);
      }

      .cls-98 {
        fill: url(#linear-gradient-90);
      }

      .cls-99 {
        fill: url(#linear-gradient-91);
      }

      .cls-100 {
        fill: url(#linear-gradient-92);
      }

      .cls-101 {
        fill: url(#linear-gradient-93);
      }

      .cls-102 {
        fill: url(#linear-gradient-94);
      }

      .cls-103 {
        fill: url(#linear-gradient-95);
      }

      .cls-104 {
        fill: url(#linear-gradient-96);
      }

      .cls-105 {
        fill: url(#linear-gradient-97);
      }
    </style>
    <linearGradient id="linear-gradient" y1="670.96" x2="2144.87" y2="670.96" gradientUnits="userSpaceOnUse">
      <stop offset="0" stop-color="#dae3fe"/>
      <stop offset="1" stop-color="#e9effd"/>
    </linearGradient>
    <linearGradient id="linear-gradient-2" x1="181.84" y1="647.11" x2="525.86" y2="647.11" xlink:href="#linear-gradient"/>
    <linearGradient id="linear-gradient-3" x1="186.4" y1="684.65" x2="489.35" y2="684.65" xlink:href="#linear-gradient"/>
    <linearGradient id="linear-gradient-4" x1="107.6" y1="1003.92" x2="551.57" y2="1003.92" xlink:href="#linear-gradient"/>
    <linearGradient id="linear-gradient-5" x1="116.94" y1="771.72" x2="546.56" y2="771.72" xlink:href="#linear-gradient"/>
    <linearGradient id="linear-gradient-6" x1="256.18" y1="544.7" x2="408.81" y2="544.7" xlink:href="#linear-gradient"/>
    <linearGradient id="linear-gradient-7" x1="1820.66" y1="618.45" x2="2050.85" y2="618.45" xlink:href="#linear-gradient"/>
    <linearGradient id="linear-gradient-8" x1="190.93" y1="1023.08" x2="665.73" y2="1023.08" xlink:href="#linear-gradient"/>
    <linearGradient id="linear-gradient-9" x1="1261.02" y1="1058.47" x2="946.73" y2="1861.65" gradientUnits="userSpaceOnUse">
      <stop offset="0" stop-color="#09005d"/>
      <stop offset="1" stop-color="#1a0f91"/>
    </linearGradient>
    <linearGradient id="linear-gradient-10" x1="1137.96" y1="155.52" x2="1167.06" y2="1057.64" xlink:href="#linear-gradient-9"/>
    <linearGradient id="linear-gradient-11" x1="1663.59" y1="286.61" x2="-321.51" y2="1658.06" gradientUnits="userSpaceOnUse">
      <stop offset="0" stop-color="#4042e2"/>
      <stop offset="1" stop-color="#4f52ff"/>
    </linearGradient>
    <linearGradient id="linear-gradient-12" x1="1197.26" y1="805.09" x2="1191.44" y2="1398.74" xlink:href="#linear-gradient-9"/>
    <linearGradient id="linear-gradient-13" x1="302.12" y1="1012.13" x2="646.14" y2="1012.13" xlink:href="#linear-gradient"/>
    <linearGradient id="linear-gradient-14" x1="338.63" y1="1039.86" x2="641.58" y2="1039.86" xlink:href="#linear-gradient"/>
    <linearGradient id="linear-gradient-15" x1="276.4" y1="1182.31" x2="720.38" y2="1182.31" xlink:href="#linear-gradient"/>
    <linearGradient id="linear-gradient-16" x1="281.42" y1="1104.19" x2="711.04" y2="1104.19" xlink:href="#linear-gradient"/>
    <linearGradient id="linear-gradient-17" x1="599.43" y1="1242.43" x2="957.29" y2="1242.43" xlink:href="#linear-gradient"/>
    <linearGradient id="linear-gradient-18" x1="610.5" y1="1274.48" x2="952.22" y2="1274.48" xlink:href="#linear-gradient"/>
    <linearGradient id="linear-gradient-19" x1="1419.07" y1="993.26" x2="2016.67" y2="993.26" gradientUnits="userSpaceOnUse">
      <stop offset="0" stop-color="#fe7062"/>
      <stop offset="1" stop-color="#ff928e"/>
    </linearGradient>
    <linearGradient id="linear-gradient-20" x1="1528.48" y1="697.95" x2="1927.66" y2="697.95" xlink:href="#linear-gradient"/>
    <linearGradient id="linear-gradient-21" x1="1528.27" y1="723.79" x2="1927.45" y2="723.79" xlink:href="#linear-gradient"/>
    <linearGradient id="linear-gradient-22" x1="1533.82" y1="916.78" x2="1598.8" y2="916.78" xlink:href="#linear-gradient"/>
    <linearGradient id="linear-gradient-23" x1="1637.77" y1="917.89" x2="1914.02" y2="917.89" xlink:href="#linear-gradient"/>
    <linearGradient id="linear-gradient-24" x1="364.02" y1="6355.31" x2="98.88" y2="6807.85" gradientTransform="translate(1172.86 -5663.33) rotate(-1.38)" xlink:href="#linear-gradient-19"/>
    <linearGradient id="linear-gradient-25" x1="1535.83" y1="800.17" x2="1600.81" y2="800.17" xlink:href="#linear-gradient"/>
    <linearGradient id="linear-gradient-26" x1="1639.79" y1="801.28" x2="1916.03" y2="801.28" xlink:href="#linear-gradient"/>
    <linearGradient id="linear-gradient-27" x1="368.85" y1="6238.79" x2="103.71" y2="6691.33" gradientTransform="translate(1172.86 -5663.33) rotate(-1.38)" xlink:href="#linear-gradient-19"/>
    <linearGradient id="linear-gradient-28" x1="1536.5" y1="1028.04" x2="1601.48" y2="1028.04" xlink:href="#linear-gradient"/>
    <linearGradient id="linear-gradient-29" x1="1640.46" y1="1029.15" x2="1916.7" y2="1029.15" xlink:href="#linear-gradient"/>
    <linearGradient id="linear-gradient-30" x1="412.57" y1="6383.75" x2="147.42" y2="6836.29" gradientTransform="translate(1172.86 -5663.33) rotate(-1.38)" xlink:href="#linear-gradient-19"/>
    <linearGradient id="linear-gradient-31" x1="1534.22" y1="1135" x2="1599.2" y2="1135" xlink:href="#linear-gradient"/>
    <linearGradient id="linear-gradient-32" x1="1638.18" y1="1136.11" x2="1914.42" y2="1136.11" xlink:href="#linear-gradient"/>
    <linearGradient id="linear-gradient-33" x1="448.52" y1="6490.88" x2="99.65" y2="6977.31" gradientTransform="translate(1172.86 -5663.33) rotate(-1.38)" xlink:href="#linear-gradient-19"/>
    <linearGradient id="linear-gradient-34" x1="1530.98" y1="1245.32" x2="1595.96" y2="1245.32" xlink:href="#linear-gradient"/>
    <linearGradient id="linear-gradient-35" x1="1634.94" y1="1246.43" x2="1911.18" y2="1246.43" xlink:href="#linear-gradient"/>
    <linearGradient id="linear-gradient-36" x1="498.89" y1="6435.12" x2="233.75" y2="6887.66" gradientTransform="translate(1172.86 -5663.33) rotate(-1.38)" xlink:href="#linear-gradient-19"/>
    <linearGradient id="linear-gradient-37" x1="2534.2" y1="2116.76" x2="2328.61" y2="2387.21" gradientTransform="translate(614.76 -2567.71) rotate(28.59)" xlink:href="#linear-gradient-9"/>
    <linearGradient id="linear-gradient-38" x1="683.82" y1="6006.26" x2="471.59" y2="6285.45" gradientTransform="translate(1180.63 -5538.69) rotate(0.48)" xlink:href="#linear-gradient-9"/>
    <linearGradient id="linear-gradient-39" x1="657.08" y1="6023.33" x2="510.53" y2="6292.42" gradientTransform="translate(1180.63 -5538.69) rotate(0.48)" xlink:href="#linear-gradient-9"/>
    <linearGradient id="linear-gradient-40" x1="1508.24" y1="302.24" x2="1096.5" y2="886.85" xlink:href="#linear-gradient-19"/>
    <linearGradient id="linear-gradient-41" x1="9518.46" y1="1406.2" x2="9584.89" y2="1406.2" gradientTransform="matrix(-1, 0, 0, 1, 10418.84, 0)" xlink:href="#linear-gradient-11"/>
    <linearGradient id="linear-gradient-42" x1="9518.46" y1="1393.18" x2="9583.01" y2="1393.18" gradientTransform="matrix(-1, 0, 0, 1, 10418.84, 0)" xlink:href="#linear-gradient-9"/>
    <linearGradient id="linear-gradient-43" x1="9524.59" y1="1375.01" x2="9543.31" y2="1375.01" gradientTransform="matrix(-1, 0, 0, 1, 10418.84, 0)" gradientUnits="userSpaceOnUse">
      <stop offset="0" stop-color="#ff928e"/>
      <stop offset="1" stop-color="#feb3b1"/>
    </linearGradient>
    <linearGradient id="linear-gradient-44" x1="9386.04" y1="1404.77" x2="9411.49" y2="1404.77" gradientTransform="matrix(-1, 0, 0, 1, 10418.84, 0)" xlink:href="#linear-gradient-11"/>
    <linearGradient id="linear-gradient-45" x1="9386.22" y1="1385.17" x2="9423.59" y2="1385.17" gradientTransform="matrix(-1, 0, 0, 1, 10418.84, 0)" xlink:href="#linear-gradient-9"/>
    <linearGradient id="linear-gradient-46" x1="9405.64" y1="1359.41" x2="9428" y2="1359.41" xlink:href="#linear-gradient-43"/>
    <linearGradient id="linear-gradient-47" x1="1055.02" y1="721.74" x2="937.83" y2="1184.92" xlink:href="#linear-gradient-11"/>
    <linearGradient id="linear-gradient-48" x1="864.4" y1="995.28" x2="682" y2="1299.93" xlink:href="#linear-gradient-19"/>
    <linearGradient id="linear-gradient-49" x1="838.23" y1="677.41" x2="871.71" y2="1081.93" xlink:href="#linear-gradient-9"/>
    <linearGradient id="linear-gradient-50" x1="9508.09" y1="1033.46" x2="9428.49" y2="1103.95" xlink:href="#linear-gradient-43"/>
    <linearGradient id="linear-gradient-51" x1="900.75" y1="1017.05" x2="718.35" y2="1321.69" xlink:href="#linear-gradient-19"/>
    <linearGradient id="linear-gradient-52" x1="803.66" y1="958.91" x2="621.26" y2="1263.56" xlink:href="#linear-gradient-19"/>
    <linearGradient id="linear-gradient-53" x1="9657.31" y1="1040.13" x2="9720.01" y2="1040.13" xlink:href="#linear-gradient-43"/>
    <linearGradient id="_32" data-name="  32" x1="810.08" y1="857.93" x2="841.13" y2="964.65" gradientUnits="userSpaceOnUse">
      <stop offset="0" stop-color="#ff928e"/>
      <stop offset="0.11" stop-color="#ff9592"/>
      <stop offset="1" stop-color="#feb3b1"/>
    </linearGradient>
    <linearGradient id="linear-gradient-54" x1="9422.13" y1="1086.05" x2="9750.41" y2="1086.05" gradientTransform="matrix(-1, 0, 0, 1, 10418.84, 0)" xlink:href="#linear-gradient-9"/>
    <linearGradient id="linear-gradient-55" x1="9732.35" y1="940.49" x2="10033.68" y2="940.49" gradientTransform="matrix(-1, 0, 0, 1, 10418.84, 0)" gradientUnits="userSpaceOnUse">
      <stop offset="0" stop-color="#b37cff"/>
      <stop offset="1" stop-color="#f895e7"/>
    </linearGradient>
    <linearGradient id="linear-gradient-56" x1="9715.36" y1="940.49" x2="10050.67" y2="940.49" gradientTransform="matrix(-1, 0, 0, 1, 10418.84, 0)" xlink:href="#linear-gradient-9"/>
    <linearGradient id="linear-gradient-57" x1="9539.53" y1="1068.96" x2="9459.92" y2="1139.45" xlink:href="#linear-gradient-43"/>
    <linearGradient id="linear-gradient-58" x1="9713.35" y1="1032.77" x2="9735.8" y2="1032.77" xlink:href="#linear-gradient-43"/>
    <linearGradient id="linear-gradient-59" x1="5004.98" y1="5081.07" x2="5044.76" y2="5007.34" gradientTransform="matrix(-1, 0, 0, 1, 8085.84, 0)" xlink:href="#linear-gradient-43"/>
    <linearGradient id="linear-gradient-60" x1="7251.5" y1="827.58" x2="7302.53" y2="893.28" gradientTransform="matrix(-1, 0, 0, 1, 8085.84, 0)" xlink:href="#linear-gradient-9"/>
    <linearGradient id="linear-gradient-61" x1="4990.58" y1="5073.3" x2="5030.36" y2="4999.57" gradientTransform="matrix(-1, 0, 0, 1, 8085.84, 0)" xlink:href="#linear-gradient-43"/>
    <linearGradient id="linear-gradient-62" x1="667.3" y1="621.2" x2="464.45" y2="1128.32" xlink:href="#linear-gradient-19"/>
    <linearGradient id="linear-gradient-63" x1="1761.23" y1="105.62" x2="1635.1" y2="280.26" xlink:href="#linear-gradient-9"/>
    <linearGradient id="linear-gradient-64" x1="-328.79" y1="4121.04" x2="36.01" y2="3901.77" gradientTransform="matrix(-1, 0.07, 0.07, 1, 8298.01, 82.03)" xlink:href="#linear-gradient-19"/>
    <linearGradient id="linear-gradient-65" x1="-350.99" y1="4084.11" x2="13.81" y2="3864.84" gradientTransform="matrix(-1, 0.07, 0.07, 1, 8298.01, 82.03)" xlink:href="#linear-gradient-19"/>
    <linearGradient id="linear-gradient-66" x1="-374.46" y1="4045.06" x2="-9.66" y2="3825.79" gradientTransform="matrix(-1, 0.07, 0.07, 1, 8298.01, 82.03)" xlink:href="#linear-gradient-19"/>
    <linearGradient id="linear-gradient-67" x1="-396.97" y1="4007.62" x2="-32.16" y2="3788.35" gradientTransform="matrix(-1, 0.07, 0.07, 1, 8298.01, 82.03)" xlink:href="#linear-gradient-19"/>
    <linearGradient id="linear-gradient-68" x1="1750.21" y1="1153.3" x2="1860.48" y2="1153.3" xlink:href="#linear-gradient-11"/>
    <linearGradient id="linear-gradient-69" x1="1964.67" y1="1156.66" x2="2092.42" y2="1156.66" xlink:href="#linear-gradient-11"/>
    <linearGradient id="linear-gradient-70" x1="1824.77" y1="1017.83" x2="2004.3" y2="1017.83" xlink:href="#linear-gradient-11"/>
    <linearGradient id="linear-gradient-71" x1="1828.03" y1="1017.83" x2="2001.04" y2="1017.83" xlink:href="#linear-gradient-11"/>
    <linearGradient id="linear-gradient-72" x1="1824.77" y1="1111.35" x2="2004.3" y2="1111.35" xlink:href="#linear-gradient-11"/>
    <linearGradient id="linear-gradient-73" x1="1809.61" y1="1111.35" x2="2024.6" y2="1111.35" xlink:href="#linear-gradient-11"/>
    <linearGradient id="linear-gradient-74" x1="1824.77" y1="1204.87" x2="2004.3" y2="1204.87" xlink:href="#linear-gradient-11"/>
    <linearGradient id="linear-gradient-75" x1="1790.28" y1="1204.87" x2="2045.14" y2="1204.87" xlink:href="#linear-gradient-11"/>
    <linearGradient id="linear-gradient-76" x1="1824.77" y1="1298.39" x2="2064.62" y2="1298.39" xlink:href="#linear-gradient-11"/>
    <linearGradient id="linear-gradient-77" x1="1774.64" y1="1298.39" x2="2064.62" y2="1298.39" xlink:href="#linear-gradient-11"/>
    <linearGradient id="linear-gradient-78" x1="836.12" y1="-58.45" x2="611.18" y2="475.77" xlink:href="#linear-gradient-9"/>
    <linearGradient id="linear-gradient-79" x1="887.85" y1="-36.67" x2="662.91" y2="497.55" xlink:href="#linear-gradient-9"/>
    <linearGradient id="linear-gradient-80" x1="959.2" y1="-6.63" x2="734.26" y2="527.59" xlink:href="#linear-gradient-9"/>
    <linearGradient id="linear-gradient-81" x1="1047.32" y1="30.48" x2="822.39" y2="564.7" xlink:href="#linear-gradient-9"/>
    <linearGradient id="linear-gradient-82" x1="1124.27" y1="62.88" x2="899.33" y2="597.1" xlink:href="#linear-gradient-9"/>
    <linearGradient id="linear-gradient-83" x1="1193.7" y1="92.11" x2="968.77" y2="626.33" xlink:href="#linear-gradient-9"/>
    <linearGradient id="linear-gradient-84" x1="1277.09" y1="127.22" x2="1052.16" y2="661.45" xlink:href="#linear-gradient-9"/>
    <linearGradient id="linear-gradient-85" x1="1342.82" y1="154.9" x2="1117.88" y2="689.12" xlink:href="#linear-gradient-9"/>
    <linearGradient id="linear-gradient-86" x1="1555.09" y1="535.52" x2="1919.89" y2="316.25" xlink:href="#linear-gradient-19"/>
    <linearGradient id="linear-gradient-87" x1="1832.41" y1="359.86" x2="1910.03" y2="581.07" gradientTransform="matrix(1, 0, 0, 1, 0, 0)" xlink:href="#linear-gradient-43"/>
    <linearGradient id="linear-gradient-88" x1="6375.67" y1="2002.91" x2="6447.47" y2="1709.91" gradientTransform="translate(-4693.69)" xlink:href="#linear-gradient-43"/>
    <linearGradient id="linear-gradient-89" x1="6725.58" y1="691.97" x2="6679.02" y2="994.61" gradientTransform="translate(-4693.69)" xlink:href="#linear-gradient-9"/>
    <linearGradient id="linear-gradient-90" x1="6627.07" y1="676.81" x2="6580.51" y2="979.45" gradientTransform="translate(-4693.69)" xlink:href="#linear-gradient-9"/>
    <linearGradient id="linear-gradient-91" x1="6301.48" y1="1984.73" x2="6373.28" y2="1691.73" gradientTransform="translate(-4693.69)" xlink:href="#linear-gradient-43"/>
    <linearGradient id="linear-gradient-92" x1="-4283.89" y1="797.03" x2="-4222.06" y2="690.68" gradientTransform="matrix(-1, 0, 0, 1, -2305.07, 0)" xlink:href="#linear-gradient-11"/>
    <linearGradient id="linear-gradient-93" x1="6339.88" y1="-903.34" x2="6372.37" y2="-677.51" gradientTransform="translate(-4693.69)" xlink:href="#linear-gradient-11"/>
    <linearGradient id="linear-gradient-94" x1="6555.81" y1="553.07" x2="6589.12" y2="553.07" gradientTransform="translate(-4693.69)" gradientUnits="userSpaceOnUse">
      <stop offset="0" stop-color="#f9b776"/>
      <stop offset="1" stop-color="#f47960"/>
    </linearGradient>
    <linearGradient id="linear-gradient-95" x1="6562.93" y1="506.9" x2="6805.42" y2="523.39" gradientTransform="translate(-4693.69)" xlink:href="#linear-gradient-43"/>
    <linearGradient id="linear-gradient-96" x1="6624.55" y1="543.52" x2="6539.2" y2="714.24" gradientTransform="translate(-4693.69)" xlink:href="#linear-gradient-9"/>
    <linearGradient id="linear-gradient-97" x1="5938.37" y1="-1031.77" x2="6015.99" y2="-810.56" gradientTransform="translate(-4693.69)" xlink:href="#linear-gradient-43"/>
  </defs>
  <title>Asset 1</title>
  <g id="Layer_2" data-name="Layer 2">
    <g id="Illustration">
      <g>
        <path class="cls-1" d="M549.07,1341.12s-190.4-25.34-280.81-5.55S-46.1,1248,28.13,1079.56s158.26-272.84,61.16-365S-38.34,447.05,61.77,348.47,192,351.32,271.78,315,250.26,89.31,475.58,35.78s393.59,80.62,496,62.35S1238.41-4.52,1349,.19s96.84,169.55,243.55,159.94,261.86-26.21,356.9,114.11,72.18,318.3-18.42,388.63-72.93,164.92,94.13,170.35,148.24,201.6,11.92,346.42-253.28,146.43-389.45,155.93S549.07,1341.12,549.07,1341.12Z"/>
        <g>
          <path class="cls-2" d="M566.42,1342.59H91.26a27.44,27.44,0,0,1-27.44-27.44V603.46A27.43,27.43,0,0,1,91.18,576l479-1.29a27.43,27.43,0,0,1,27.5,27.59l-3.8,713A27.44,27.44,0,0,1,566.42,1342.59Z"/>
          <path class="cls-3" d="M543.14,609.86l-424.88,2.62a27.82,27.82,0,0,0-27.66,28l3,638.77a27.84,27.84,0,0,0,27.33,27.7l412.82,7.53A27.83,27.83,0,0,0,562.05,1287l9.09-648.91A27.84,27.84,0,0,0,543.14,609.86Z"/>
          <rect class="cls-4" x="181.84" y="637.32" width="344.02" height="19.59" rx="8.33"/>
          <path class="cls-5" d="M489.33,682.49h0a8.32,8.32,0,0,1-8.16,7.88l-286.29,5.21a8.32,8.32,0,0,1-8.48-8.32v-.68a8.32,8.32,0,0,1,8.19-8.33l286.3-4.54A8.32,8.32,0,0,1,489.33,682.49Z"/>
          <path class="cls-6" d="M518.27,1292.62,131,1288a23.73,23.73,0,0,1-23.44-24.18l10-525.3a23.73,23.73,0,0,1,24.18-23.28l386.56,7.53a23.75,23.75,0,0,1,23.26,24.14h0l-9.29,522.43a23.79,23.79,0,0,1-23.72,23.31Zm-388-565.09a15.72,15.72,0,0,0-4.85,11.11l-10,525.3a15.83,15.83,0,0,0,15.64,16.14l387.22,4.64a15.8,15.8,0,0,0,16-15.55l9.3-522.43h0a15.86,15.86,0,0,0-15.53-16.11L141.6,723.11h-.32A15.73,15.73,0,0,0,130.31,727.53Z"/>
          <path class="cls-7" d="M120.88,775.67H542.61a4,4,0,0,0,0-7.9H120.88a4,4,0,0,0,0,7.9Z"/>
        </g>
        <g>
          <path class="cls-8" d="M227.84,113.56c-29.09,87.09-177.72,600.81,279.3,826.87,0,0,184.9-313-266.09-829.54A7.77,7.77,0,0,0,227.84,113.56Z"/>
          <path class="cls-9" d="M256.18,201.26c2.28,29.27,5.17,58.45,8.31,87.62s6.63,58.3,10.46,87.39c7.65,58.17,16.61,116.19,27.34,173.9S325.54,665.29,341.13,722q11.56,42.54,26.25,84.2c9.85,27.72,20.81,55.12,33.94,81.59a3.94,3.94,0,1,0,7.07-3.5v0h0c-13.1-26-24.14-53.07-34.09-80.52s-18.79-55.36-26.64-83.54c-15.89-56.32-28.7-113.52-39.83-171s-20.4-115.4-28.42-173.45q-6-43.55-11-87.22c-3.32-29.11-6.39-58.27-8.85-87.45h0a1.67,1.67,0,1,0-3.33.27Z"/>
        </g>
        <g>
          <path class="cls-8" d="M2057.45,136.67c-2.23-7.44-13-6.95-14.48.67C2028.41,211,1984.2,403,1901.3,509.6c-135,173.52-212.6,444.14-107.27,572.86C1794,1082.46,2300.13,947.57,2057.45,136.67Z"/>
          <path class="cls-10" d="M2050.85,240.7c0,2.27-.21,4.26-.34,6.36l-.5,6.21-1.13,12.4c-.8,8.27-1.69,16.52-2.6,24.77q-2.82,24.75-6.19,49.42c-4.5,32.9-9.87,65.68-15.75,98.36s-12.54,65.23-19.9,97.62L2001.7,548l-2.9,12.12c-2,8.07-3.78,16.17-5.89,24.21l-6.14,24.14-6.51,24c-17.69,64-38.73,127.22-64.19,188.64-1.53,3.86-3.2,7.67-4.88,11.46l-5,11.41-5,11.41c-1.72,3.79-3.54,7.52-5.3,11.29-3.6,7.49-7,15.06-10.76,22.48l-11.34,22.2a879.58,879.58,0,0,1-51.55,85.28.84.84,0,0,1-1.4-.94h0a944.85,944.85,0,0,0,49.83-85.94l11.08-22.24c3.65-7.43,7-15,10.48-22.52,1.72-3.76,3.5-7.51,5.17-11.29l4.88-11.43,4.88-11.42c1.64-3.8,3.26-7.61,4.75-11.47l9.22-23.07c3-7.71,5.84-15.5,8.77-23.25,1.44-3.88,2.93-7.75,4.32-11.65l4.1-11.72,4.1-11.73c1.39-3.9,2.74-7.82,4-11.77,10.59-31.39,19.92-63.2,28.95-95.08,17.81-63.85,32.34-128.59,44.83-193.7q9.28-48.85,16.68-98.06,3.74-24.58,7-49.25c1-8.22,2.06-16.45,3-24.69l1.32-12.36.6-6.18c.16-2,.37-4.17.44-6.06v-.18a.84.84,0,0,1,1.68,0Z"/>
        </g>
        <g>
          <path class="cls-8" d="M696.4,1315s-5.24-110.77-119.79-220C470.32,993.64,209.46,759.53,147.29,627.73a6,6,0,0,0-11.37,2.6c1.11,69.23,17.54,242.42,141.68,411.74C437.7,1260.43,696.4,1315,696.4,1315Z"/>
          <path class="cls-11" d="M190.93,750.58c2.36,15.14,6.6,29.94,11.63,44.4.62,1.82,1.21,3.64,1.86,5.45l2.05,5.36,4.11,10.75,4.56,10.56c1.56,3.5,3,7.08,4.73,10.49A542.18,542.18,0,0,0,266.25,917c4.17,6.46,9,12.44,13.6,18.59S289,948,294,953.75l14.79,17.66c2.4,3,5.11,5.73,7.7,8.56l7.85,8.43,7.85,8.43,3.93,4.2,4.13,4,16.5,16.07c2.77,2.65,5.46,5.41,8.29,8l8.5,7.72,17,15.45,17.15,15.25c5.74,5.07,11.42,10.19,17.23,15.17q17.32,15.08,34.87,29.87c11.65,9.91,23.46,19.64,35.22,29.43l35.56,29c23.72,19.29,47.47,38.53,70.53,58.51,5.84,4.92,11.41,10.11,17.08,15.21,2.87,2.52,5.55,5.22,8.3,7.85s5.52,5.26,8.18,8c5.19,5.55,10.61,10.93,15.4,16.83l3.72,4.34c.6.73,1.26,1.43,1.83,2.19l1.7,2.28,6.81,9.16,0,0a.87.87,0,0,0,1.43-1,270.87,270.87,0,0,0-28.71-36c-2.62-2.81-5.36-5.49-8-8.24s-5.35-5.5-8.16-8.1c-5.58-5.26-11.07-10.62-16.8-15.69-22.73-20.56-46.35-40-69.77-59.68s-46.9-39.21-70.13-59.06-46.18-40-68.94-60.35l-16.94-15.42-8.47-7.72c-2.82-2.56-5.5-5.26-8.26-7.88l-16.45-15.84-4.11-4-3.93-4.14L329.06,984a672.39,672.39,0,0,1-58.39-70.11A538.45,538.45,0,0,1,223,836.08c-1.83-3.35-3.29-6.87-5-10.29l-4.89-10.34-4.44-10.53-2.23-5.27c-.7-1.77-1.34-3.56-2-5.35-1.31-3.57-2.73-7.12-3.95-10.73l-3.58-10.87a225.14,225.14,0,0,1-5.77-22.15.11.11,0,1,0-.21,0Z"/>
        </g>
        <g>
          <polygon class="cls-12" points="1059.5 1055.61 1030.78 1313.19 1363.98 1313.19 1320.58 1055.61 1059.5 1055.61"/>
          <path class="cls-13" d="M360.55,293.35v708.58a107.5,107.5,0,0,0,104.72,107.46c258.81,6.67,1164,22.85,1410.35,19.22a79.09,79.09,0,0,0,77.87-76.84c4.75-164.61,12.47-560.45-16.09-744.22a81.38,81.38,0,0,0-77.82-68.89c-216.85-6.94-1176.4-29-1422.65-23.44A78.14,78.14,0,0,0,360.55,293.35Z"/>
          <path class="cls-14" d="M405,289.9V963.1a62.28,62.28,0,0,0,61.35,62.27l1373.82,17A60.61,60.61,0,0,0,1901.7,982l2.3-667.18a44.33,44.33,0,0,0-43.25-44.48L454.21,241.88A48,48,0,0,0,405,289.9Z"/>
          <path class="cls-15" d="M444,311.26V943.12c0,31.94,26,58,58.41,58.44L1810.5,1017.5c32.12.47,58.45-25,58.57-56.68l2.19-626.2c.09-22.65-18.22-41.2-41.18-41.75L490.82,266.2C465.14,265.58,444,285.94,444,311.26Z"/>
          <path class="cls-2" d="M1912,1070.13h0L405,1044.45a2.11,2.11,0,1,1,.07-4.21l1507,25.68a2.11,2.11,0,0,1,0,4.21Z"/>
          <path class="cls-2" d="M1173.39,1101.49a17.79,17.79,0,1,1,17.79-17.78A17.81,17.81,0,0,1,1173.39,1101.49Zm0-31.36a13.58,13.58,0,1,0,13.58,13.58A13.59,13.59,0,0,0,1173.39,1070.13Z"/>
          <path class="cls-16" d="M1435.76,1365.89H948.09c-13.25,0-23.2-9.43-20.64-19.56l6.26-24.75c1.88-7.44,10.07-12.91,19.79-13.21l470.13-14.67c10.16-.32,19.16,5.08,21.37,12.81l11.28,39.42C1459.22,1356.17,1449.22,1365.89,1435.76,1365.89Z"/>
          <path class="cls-2" d="M1210.61,1315.59a2.11,2.11,0,0,1,0-4.21l20.14-.3a2.19,2.19,0,0,1,2.14,2.08,2.11,2.11,0,0,1-2.08,2.14l-20.14.29Z"/>
          <path class="cls-2" d="M945.51,1352.76l-.34,0a2.12,2.12,0,0,1-1.75-2.42l2.88-18A20.59,20.59,0,0,1,966.37,1315l213.67-3.13a2.11,2.11,0,0,1,.07,4.22l-213.68,3.12a16.38,16.38,0,0,0-16,13.83l-2.88,18A2.1,2.1,0,0,1,945.51,1352.76Z"/>
        </g>
        <g>
          <path class="cls-17" d="M994.54,794.8l-502.14,6c-19.34.23-34.58,12.75-33.64,27.63l8.37,131.49c.89,14,15.92,25.06,34.16,25.06H995.07c18.89,0,34.2-11.8,34.2-26.35V821.13C1029.27,806.43,1013.64,794.57,994.54,794.8Z"/>
          <path class="cls-17" d="M1614.53,758.22l-502.14,7.3c-19.34.29-34.59,15.61-33.64,33.81l8.36,160.9c.89,17.17,15.93,30.65,34.17,30.65h493.77c18.89,0,34.21-14.43,34.21-32.23V790.44C1649.26,772.45,1633.62,757.94,1614.53,758.22Z"/>
          <path class="cls-17" d="M1265.66,412.28H490.27c-12,0-21.8,9.18-21.8,20.49V632c0,11.32,9.76,20.49,21.8,20.49h775.39c12,0,21.81-9.17,21.81-20.49V432.77C1287.47,421.46,1277.7,412.28,1265.66,412.28Z"/>
          <path class="cls-17" d="M1844,423.48H1533.81a10.62,10.62,0,0,0-2.7.25c-25.93,6.8-34.66-14.94-44.74,18.08-.41,1.32.52,2.72.52,4.11V643.19c0,11.32,20.41,20.49,45.57,20.49H1844c25.17,0,45.57-9.17,45.57-20.49V444C1889.56,432.66,1869.16,423.48,1844,423.48Z"/>
        </g>
        <g>
          <path class="cls-2" d="M261.56,1339.1H736.72c15.15,0,27.44-9.08,27.44-20.27V979.88c0-11.17-12.24-20.24-27.36-20.27l-479-1c-15.24,0-27.59,9.12-27.51,20.38l3.8,339.9C234.2,1330.09,246.46,1339.1,261.56,1339.1Z"/>
          <path class="cls-3" d="M284.84,984.61l424.88,1.93c15.35.07,27.73,9.31,27.66,20.66l-3,285.07c-.07,11.18-12.21,20.27-27.33,20.47l-412.82,5.56c-15.42.21-28.13-8.88-28.34-20.27l-9.09-292.57C256.62,993.94,269.25,984.54,284.84,984.61Z"/>
          <path class="cls-18" d="M302.12,1011v2.17c0,3.4,3.73,6.15,8.33,6.15H637.81c4.6,0,8.33-2.75,8.33-6.15V1011c0-3.39-3.73-6.15-8.33-6.15H310.45C305.85,1004.89,302.12,1007.65,302.12,1011Z"/>
          <path class="cls-19" d="M338.64,1038.26h0c.24,3.22,3.8,5.76,8.17,5.82l286.29,3.86c4.66.06,8.48-2.71,8.48-6.15v-.51c0-3.36-3.65-6.1-8.19-6.15l-286.3-3.35C342.26,1031.72,338.38,1034.7,338.64,1038.26Z"/>
          <path class="cls-20" d="M285.7,1285.09,276.41,1086v-.09a16.16,16.16,0,0,1,4.75-11.55c4.4-4.57,11.15-7.26,18.53-7.36l386.55-5.56h.45c12.86,0,23.46,8.08,23.71,18.08l10,201.35a16.08,16.08,0,0,1-4.77,11.6c-4.44,4.6-11.25,7.27-18.68,7.34l-387.23,3.43h-.28C296.34,1303.21,285.94,1295.26,285.7,1285.09ZM686.36,1069.3l-386.55,5.56c-5.21.08-10.06,1.92-13,4.94a8.37,8.37,0,0,0-2.54,5.85l9.29,199.17c.14,5.72,7.37,10.5,15.83,10.5h.2l387.23-3.44c5.25,0,10.14-1.88,13.07-4.92a8.31,8.31,0,0,0,2.57-5.82l-10-201.35c-.15-5.74-7.36-10.49-15.83-10.49Zm-406,16.48h0Z"/>
          <path class="cls-21" d="M285.37,1108.13H707.09a3.95,3.95,0,1,0,0-7.89H285.37a3.95,3.95,0,1,0,0,7.89Z"/>
        </g>
        <g>
          <path class="cls-2" d="M1024.45,1213.81l-3.7,132c-.28,10.26-14.23,18.48-31.34,18.48H557.21c-17.32,0-31.35-8.41-31.35-18.79V1222c0-10.14,13.42-18.45,30.33-18.78l435.91-8.46C1010,1194.36,1024.75,1203.07,1024.45,1213.81Z"/>
          <path class="cls-8" d="M988.68,1226.67l-9.38,121.39c-.36,4.66-6.84,8.31-14.63,8.23l-393.56-4.16c-7.85-.08-14.13-3.92-14.13-8.62V1238.23c0-4.6,6-8.39,13.67-8.61l402.94-12C982.07,1217.41,989.07,1221.59,988.68,1226.67Z"/>
          <path class="cls-22" d="M957.29,1238.05v8.75c0,3.08-4.21,5.57-9.35,5.52L608.48,1249c-5,0-9.05-2.51-9.05-5.52h0c0-3,4-5.44,9-5.52l339.45-5.42C953,1232.46,957.29,1235,957.29,1238.05Z"/>
          <path class="cls-23" d="M952.22,1271.08v8c0,3.12-4.32,5.62-9.52,5.51l-323.31-6.75c-5-.1-8.89-2.54-8.89-5.52v-2.5c0-3.06,4.16-5.53,9.27-5.51l323.31,1.23C948.14,1265.59,952.22,1268.05,952.22,1271.08Z"/>
        </g>
        <g>
          <path class="cls-24" d="M1479.34,612.87l461.4,3.81a47.8,47.8,0,0,1,47.36,45.76l28.54,669.23a35.25,35.25,0,0,1-34.87,36.75l-528.91,5.24a33.46,33.46,0,0,1-33.79-33.73l5.56-673.26A54.26,54.26,0,0,1,1479.34,612.87Z"/>
          <path class="cls-25" d="M1530.23,1363.17h0l-59.17-1.25a36.73,36.73,0,0,1-35.82-36.89l.74-89.34a1.51,1.51,0,0,1,1.52-1.5,1.53,1.53,0,0,1,1.49,1.52l-.74,89.34a33.72,33.72,0,0,0,32.87,33.86l59.17,1.25a1.51,1.51,0,0,1-.06,3Z"/>
          <path class="cls-25" d="M1437.69,1209.53a1.51,1.51,0,0,1-1.49-1.52l.12-14.46a1.51,1.51,0,0,1,1.52-1.5h0a1.52,1.52,0,0,1,1.49,1.52l-.12,14.47a1.51,1.51,0,0,1-1.52,1.49Z"/>
          <g>
            <path class="cls-2" d="M1480.8,607.45c62.94,9.07,279.39,37.29,458.65,25A14.58,14.58,0,0,1,1955,646.34l30.16,672.22a16.78,16.78,0,0,1-15.9,17.51c-75.38,3.83-385.81,18.51-496.39,6a13.28,13.28,0,0,1-11.78-13.25L1462.8,623A15.76,15.76,0,0,1,1480.8,607.45Z"/>
            <path class="cls-8" d="M1487.41,624.94c60.56,8.72,268.87,35.88,441.37,24.07a14,14,0,0,1,15,13.35l29,646.91a16.14,16.14,0,0,1-15.3,16.85c-72.54,3.69-371.28,17.81-477.7,5.77a12.78,12.78,0,0,1-11.33-12.74l1.61-679.22A15.17,15.17,0,0,1,1487.41,624.94Z"/>
            <path class="cls-26" d="M1923.89,705.78a3.7,3.7,0,0,0,3.77-4l-.08-1.32a4.37,4.37,0,0,0-4.23-4l-392.64-6.34c-2.2,0-2.89,1.35-1.53,3.08l4.88,6.25a9.45,9.45,0,0,0,6.47,3.18Z"/>
            <path class="cls-27" d="M1530.5,716c-2.2,0-2.89,1.36-1.54,3.09l4.89,6.24a9.45,9.45,0,0,0,6.47,3.18l383.36,3.17a3.7,3.7,0,0,0,3.76-4l-.07-1.32a4.39,4.39,0,0,0-4.23-4.06Z"/>
            <path class="cls-28" d="M1596.59,951.39h-.14l-51.92.76c-7.49.1-13.79-4.9-14.66-11.64l-5.61-43.45a9.56,9.56,0,0,1,2.09-7.26,11.5,11.5,0,0,1,7.93-4.16h0c4.38-.4,10.39-1.06,17-1.79,14.42-1.58,30.76-3.37,40.38-3.72h.21c6.88-.16,12.91,3.89,14.69,9.92,3,10,3.17,28.89,3.15,49.07C1609.72,945.73,1603.84,951.21,1596.59,951.39Zm-61.91-61.53a7.27,7.27,0,0,0-5,2.58,5.38,5.38,0,0,0-1.2,4.08l5.62,43.45c.59,4.6,5.06,8,10.39,7.94l51.92-.75h.1c5-.12,9-3.71,9-8,0-19.86-.18-38.46-3-47.87-1.23-4.16-5.82-7.17-10.69-6.88-9.46.35-26.43,2.21-40.07,3.7-6.65.73-12.69,1.39-17.08,1.8Z"/>
            <path class="cls-29" d="M1540.36,894.1c10.88-1,34.53-4,45.77-4.4,4.76-.18,9,2.6,10.22,6.7,2.37,8,2.47,24,2.44,38.74,0,4.42-4,8.05-8.93,8.12l-41.5.6c-5.1.08-9.42-3.3-10-7.82l-4.48-34.72C1533.4,897.73,1536.32,894.47,1540.36,894.1Z"/>
            <path class="cls-30" d="M1640.81,905.09a2.84,2.84,0,0,0-2.88,3.84l5.24,18.1a5.49,5.49,0,0,0,5.11,3.74l261.92-6.32a3.89,3.89,0,0,0,3.81-4.09l-.52-11.36a4.24,4.24,0,0,0-4.18-4Z"/>
            <path class="cls-31" d="M1542.73,900.87h0a8,8,0,0,1,11.06,2.73l10.69,18.11a2.56,2.56,0,0,0,4.56-.31l24-57.16a2.84,2.84,0,0,1,5.45,1.1c.16,17.3-3.63,50.29-30.6,78.47,0,0-15.38-5.55-28.29-32.19A8.37,8.37,0,0,1,1542.73,900.87Z"/>
            <path class="cls-28" d="M1598.61,834.78h-.14l-51.93.75c-7.48.11-13.78-4.89-14.65-11.63l-5.62-43.45a9.64,9.64,0,0,1,2.09-7.27,11.55,11.55,0,0,1,7.94-4.15h0c4.37-.41,10.39-1.07,17-1.79,14.42-1.58,30.76-3.37,40.38-3.72h.21c6.89-.17,12.91,3.89,14.7,9.91,3,10,3.17,28.9,3.14,49.08C1611.73,829.12,1605.85,834.6,1598.61,834.78Zm-61.92-61.53a7.29,7.29,0,0,0-5,2.58,5.41,5.41,0,0,0-1.2,4.08l5.62,43.45c.59,4.6,5.06,8,10.39,7.94l51.92-.76h.11c5-.12,9-3.71,9-8,0-19.86-.18-38.47-3-47.87-1.24-4.17-5.83-7.17-10.69-6.88-9.47.35-26.44,2.21-40.08,3.7-6.65.73-12.69,1.39-17.08,1.8Z"/>
            <path class="cls-32" d="M1542.37,777.48c10.89-1,34.53-4,45.77-4.39,4.76-.18,9,2.6,10.23,6.7,2.36,8,2.46,24,2.44,38.74,0,4.42-4,8.05-8.94,8.12l-41.5.6c-5.1.07-9.42-3.3-10-7.82l-4.49-34.72C1535.42,781.12,1538.33,777.86,1542.37,777.48Z"/>
            <path class="cls-33" d="M1642.83,788.48a2.85,2.85,0,0,0-2.89,3.84l5.24,18.09a5.48,5.48,0,0,0,5.11,3.75l261.92-6.32a3.91,3.91,0,0,0,3.82-4.09l-.52-11.37a4.25,4.25,0,0,0-4.19-4Z"/>
            <path class="cls-34" d="M1544.75,784.26h0a8,8,0,0,1,11.06,2.73l10.68,18.1a2.55,2.55,0,0,0,4.56-.3l24-57.16a2.84,2.84,0,0,1,5.45,1.1c.16,17.3-3.64,50.28-30.61,78.47,0,0-15.37-5.55-28.29-32.19A8.36,8.36,0,0,1,1544.75,784.26Z"/>
            <path class="cls-28" d="M1599.28,1062.65h-.14l-51.93.75c-7.48.11-13.78-4.89-14.65-11.63l-5.62-43.45a9.61,9.61,0,0,1,2.09-7.27,11.54,11.54,0,0,1,7.94-4.16h0c4.37-.4,10.39-1.06,17-1.79,14.42-1.57,30.76-3.37,40.38-3.72h.21c6.89-.17,12.91,3.88,14.7,9.91,3,10,3.17,28.89,3.14,49.08C1612.4,1057,1606.52,1062.48,1599.28,1062.65Zm-61.92-61.53a7.29,7.29,0,0,0-5,2.59,5.38,5.38,0,0,0-1.2,4.07l5.62,43.45c.59,4.61,5.06,8,10.39,7.94l51.92-.75h.11c5-.12,9-3.71,9-8.05,0-19.86-.18-38.46-3-47.86-1.24-4.17-5.83-7.12-10.69-6.88-9.47.34-26.44,2.2-40.08,3.7-6.65.72-12.69,1.39-17.08,1.79Z"/>
            <path class="cls-35" d="M1543,1005.36c10.89-1,34.53-4,45.77-4.4,4.76-.17,9,2.61,10.23,6.71,2.36,8,2.46,24,2.44,38.73,0,4.43-4,8-8.94,8.13l-41.5.6c-5.1.07-9.42-3.3-10-7.82l-4.49-34.72C1536.09,1009,1539,1005.73,1543,1005.36Z"/>
            <path class="cls-36" d="M1643.5,1016.35a2.85,2.85,0,0,0-2.89,3.85l5.24,18.09A5.5,5.5,0,0,0,1651,1042l261.92-6.32a3.92,3.92,0,0,0,3.82-4.09l-.53-11.37a4.23,4.23,0,0,0-4.18-4Z"/>
            <path class="cls-37" d="M1545.42,1012.14h0a8,8,0,0,1,11.06,2.72l10.68,18.11a2.56,2.56,0,0,0,4.56-.31l24-57.15a2.84,2.84,0,0,1,5.45,1.09c.16,17.3-3.64,50.29-30.61,78.47,0,0-15.37-5.55-28.29-32.18A8.36,8.36,0,0,1,1545.42,1012.14Z"/>
            <path class="cls-28" d="M1597,1169.61h-.13l-51.93.76c-7.48.11-13.78-4.9-14.65-11.64l-5.62-43.44a9.61,9.61,0,0,1,2.09-7.27,11.54,11.54,0,0,1,7.94-4.16h0c4.36-.4,10.38-1.06,17-1.79,13.72-1.5,30.78-3.37,40.4-3.72,6.83-.2,13.1,3.82,14.91,9.91,3,10,3.17,28.89,3.14,49.07C1610.12,1164,1604.24,1169.44,1597,1169.61Zm-61.91-61.53a7.27,7.27,0,0,0-5,2.59,5.38,5.38,0,0,0-1.2,4.07l5.62,43.45c.59,4.6,5.06,8,10.39,7.94l51.92-.75c4.9-.21,9.09-3.69,9.1-8.05,0-19.86-.18-38.46-3-47.87-1.23-4.16-5.82-7.06-10.68-6.87-9.47.34-26.45,2.2-40.1,3.69-6.64.73-12.68,1.39-17.06,1.8Z"/>
            <path class="cls-38" d="M1540.76,1112.32c10.89-1,34.53-4,45.77-4.4,4.76-.17,9,2.6,10.23,6.71,2.36,8,2.46,24,2.44,38.73,0,4.42-4,8.05-8.94,8.12l-41.5.6c-5.1.08-9.42-3.3-10-7.82l-4.49-34.72C1533.81,1116,1536.72,1112.69,1540.76,1112.32Z"/>
            <path class="cls-39" d="M1641.22,1123.31a2.85,2.85,0,0,0-2.89,3.84l5.24,18.1a5.49,5.49,0,0,0,5.11,3.74l261.92-6.31a3.92,3.92,0,0,0,3.82-4.1l-.53-11.36a4.24,4.24,0,0,0-4.18-4Z"/>
            <path class="cls-40" d="M1543.13,1119.09h0a8,8,0,0,1,11.07,2.73l10.68,18.11a2.56,2.56,0,0,0,4.56-.31l24-57.15a2.84,2.84,0,0,1,5.45,1.09c.15,17.3-3.64,50.29-30.61,78.47,0,0-15.37-5.55-28.29-32.19A8.37,8.37,0,0,1,1543.13,1119.09Z"/>
            <path class="cls-28" d="M1593.76,1279.93h-.14l-51.93.76c-7.48.11-13.78-4.9-14.65-11.64l-5.62-43.44a9.61,9.61,0,0,1,2.09-7.27,11.54,11.54,0,0,1,7.94-4.16h0c4.37-.4,10.39-1.06,17-1.79,14.42-1.58,30.76-3.37,40.38-3.72,7.06-.08,13.1,3.82,14.91,9.91,3,10,3.17,28.89,3.14,49.08C1606.88,1274.28,1601,1279.76,1593.76,1279.93Zm-61.92-61.53a7.27,7.27,0,0,0-5,2.59,5.38,5.38,0,0,0-1.2,4.07l5.62,43.45c.59,4.6,5.06,8,10.39,7.94l51.92-.75h.11c5-.11,9-3.71,9-8,0-19.86-.18-38.46-3-47.87-1.24-4.16-5.83-7-10.69-6.87-9.47.34-26.44,2.2-40.08,3.69-6.65.73-12.69,1.4-17.08,1.8Z"/>
            <path class="cls-41" d="M1537.52,1222.64c10.89-1,34.53-4,45.77-4.4,4.76-.17,9,2.6,10.23,6.71,2.36,8,2.46,24,2.44,38.73,0,4.43-4,8-8.94,8.12l-41.5.61c-5.1.07-9.42-3.31-10-7.83l-4.49-34.72C1530.57,1226.27,1533.48,1223,1537.52,1222.64Z"/>
            <path class="cls-42" d="M1638,1233.63a2.85,2.85,0,0,0-2.89,3.84l5.24,18.1a5.47,5.47,0,0,0,5.11,3.74l261.92-6.31a3.92,3.92,0,0,0,3.82-4.1l-.53-11.36a4.22,4.22,0,0,0-4.18-4Z"/>
            <path class="cls-43" d="M1539.9,1229.42h0a8,8,0,0,1,11.06,2.72l10.68,18.11a2.56,2.56,0,0,0,4.56-.31l24-57.15a2.84,2.84,0,0,1,5.45,1.09c.16,17.3-3.64,50.29-30.61,78.47,0,0-15.37-5.55-28.29-32.18A8.36,8.36,0,0,1,1539.9,1229.42Z"/>
          </g>
          <path class="cls-44" d="M1739.41,523.8c-16.57-11.73-31.07-11.62-41.29-8.7a20.35,20.35,0,0,0-14.63,21.28l4,48,52.31,5.08S1771.91,546.81,1739.41,523.8Zm-23.34,38.55a13.06,13.06,0,1,1,13.16-13A13.06,13.06,0,0,1,1716.07,562.35Z"/>
          <path class="cls-8" d="M1692,565.44a2.57,2.57,0,0,1-1.67-2.21l-.64-7.66a2.59,2.59,0,0,1,5.17-.43l.63,7.66a2.59,2.59,0,0,1-2.37,2.8A2.63,2.63,0,0,1,1692,565.44Zm-1.25-15a2.57,2.57,0,0,1-1.67-2.21l-.49-5.81a20.75,20.75,0,0,1,14.9-21.65,40.37,40.37,0,0,1,19.78-.66,2.6,2.6,0,0,1-1.08,5.08,35.29,35.29,0,0,0-17.27.56A15.57,15.57,0,0,0,1693.75,542l.48,5.81a2.59,2.59,0,0,1-2.36,2.8A2.65,2.65,0,0,1,1690.74,550.44Z"/>
          <path class="cls-45" d="M1615.78,614.88l.2-24.15a14.73,14.73,0,0,1,15.36-14.59l166.41,7.07a14.33,14.33,0,0,1,13.7,13.58l1.2,23.21Z"/>
          <path class="cls-8" d="M1670.92,585.8a1.51,1.51,0,0,1,0-3l7.16.06a1.51,1.51,0,1,1,0,3l-7.16-.06Z"/>
          <path class="cls-8" d="M1624,608.53a2.59,2.59,0,0,1-1.68-2.45l.08-9.76a15,15,0,0,1,15.13-14.9l26.32.22a2.6,2.6,0,0,1,0,5.19l-26.32-.22a9.85,9.85,0,0,0-9.91,9.75l-.08,9.77a2.59,2.59,0,0,1-2.61,2.57A2.35,2.35,0,0,1,1624,608.53Z"/>
          <path class="cls-46" d="M1563.7,605.61l291.08,2.4a21.5,21.5,0,0,1,21,18l.24,1.43a18.48,18.48,0,0,1-18.39,21.48l-298.63-2.47a12,12,0,0,1-11.89-12.69l.75-13.36A15.69,15.69,0,0,1,1563.7,605.61Z"/>
        </g>
        <path class="cls-47" d="M1124.51,653.88a865.16,865.16,0,0,1,97.24,113.49c41.72-95.12,86.19-183.5,134.33-262.88l118-39.34c-81.32,106-168,264-242.12,422.52-53.59-75.52-107.13-150.89-145.75-177.63Z"/>
        <g>
          <g>
            <g>
              <g>
                <path class="cls-48" d="M835.82,1403c11.38,1,31.13,2.58,46.7,3.27,9.36.41,14.75-.51,17.85-1.75q0,.52,0,1a3.22,3.22,0,0,1-3.05,3,546.62,546.62,0,0,1-61.15.06,2.3,2.3,0,0,1-1.87-3.45A18.8,18.8,0,0,1,835.82,1403Z"/>
                <path class="cls-49" d="M882.52,1406.26c-15.57-.69-35.32-2.29-46.7-3.27,11.19-13.73,46.7-23,46.7-23h10a42,42,0,0,1,7.82,24.5C897.27,1405.75,891.88,1406.67,882.52,1406.26Z"/>
                <path class="cls-50" d="M894.24,1363.64l-.94,18.57a4.24,4.24,0,0,1-3.62,4,16.53,16.53,0,0,1-7.53-.62,5.05,5.05,0,0,1-3.38-3.86l-3.24-18.08Z"/>
              </g>
              <g>
                <g>
                  <path class="cls-51" d="M1024.51,1406.12c4.94-.69,7.17-3.26,8.1-6l0,.08c.73,2.89-1,5.88-4.32,7.31a28.15,28.15,0,0,1-12,1.87c-3.7-.15-7.1-1.68-9-4.13l0,0C1011.06,1407.05,1016.28,1407.26,1024.51,1406.12Z"/>
                  <path class="cls-52" d="M1001.24,1363.52h8.28c12.59-.26,20.51,26.31,23.09,36.6-.93,2.74-3.16,5.31-8.1,6-8.23,1.14-13.45.93-17.17-.91-6.8-9-10.18-22.08-11.8-29.73A10.44,10.44,0,0,1,1001.24,1363.52Z"/>
                </g>
                <path class="cls-53" d="M1008.45,1346.28l4.59,18.27a5,5,0,0,1-2.57,5.62c-2.57,1.31-6.19,2.7-9.52,2.3a4.13,4.13,0,0,1-3.37-2.76l-6.75-19.22Z"/>
              </g>
              <path class="cls-54" d="M1013.93,1351.56c-5.71,5.07-24.3,5.74-24.3,5.74-67-160.69-94.34-183.52-94.34-183.52,9.67,60.65,1.56,194.93,1.56,194.93-11.05,4.87-25.29,0-25.29,0a1035.09,1035.09,0,0,0-34.19-254.16c45.25-1,69.31-16.5,77.17-22.72C952.26,1152.64,1013.93,1351.56,1013.93,1351.56Z"/>
              <path class="cls-55" d="M903.05,907c8.56,42.72,5.49,119.19,3.48,154.06-.57,9.81,6.28,23.4,11.81,32.67a2.91,2.91,0,0,1-1.18,4.09c-9.26,4.76-40.63,19.51-77,21.34a5.17,5.17,0,0,1-5.22-3.87c-27-100.71-58.3-165.06-58.3-165.06C811.24,895,903.05,907,903.05,907Z"/>
              <path class="cls-56" d="M890.72,1170a2.19,2.19,0,0,0,1.12-.32,2.13,2.13,0,0,0,.71-2.94,67.32,67.32,0,0,0-26.54-23,2.14,2.14,0,1,0-1.87,3.86A64.1,64.1,0,0,1,888.89,1169,2.14,2.14,0,0,0,890.72,1170Z"/>
              <g>
                <path class="cls-57" d="M956.77,1029.65c-2.75,19.9-10.88,41.61-27.14,64.67l-6.18-5a190.71,190.71,0,0,0,3.08-61.8C936.56,1025.52,948.41,1027.54,956.77,1029.65Z"/>
                <path class="cls-58" d="M893.48,959.75,903.05,907S967,955.9,956.77,1029.65c-8.36-2.11-20.21-4.13-30.24-2.17C923.61,1003.81,914.88,978.11,893.48,959.75Z"/>
              </g>
              <g>
                <path class="cls-59" d="M776.65,950.27l24.67,53.14c-4,32.08-21.22,45.95-39.8,51.27a112.56,112.56,0,0,0-8.29-34.61C777,995.56,776.65,950.27,776.65,950.27Z"/>
                <path class="cls-60" d="M753.23,1020.07a112.56,112.56,0,0,1,8.29,34.61c-49.57,19.23-62.69-18.07-62.69-18.07L708,1035C728.68,1037.17,743.13,1030.5,753.23,1020.07Z"/>
              </g>
              <path class="cls-61" d="M799.38,884.67l11.91,43.79a8.53,8.53,0,0,0,11.4,5.67,172.82,172.82,0,0,0,17.16-7.85,11.47,11.47,0,0,0,4-16.49l-24.76-36.93Z"/>
            </g>
            <path class="cls-62" d="M676.11,1007.31l305.21,111.08A23.38,23.38,0,0,1,994.6,1150l-.93,2a21.72,21.72,0,0,1-28.89,10.73l-296.36-137.1Z"/>
            <ellipse class="cls-63" cx="535.82" cy="940.49" rx="150.67" ry="147.95"/>
            <path class="cls-64" d="M368.17,940.49c0,90.92,75.06,164.62,167.65,164.62s167.65-73.7,167.65-164.62S628.41,775.86,535.82,775.86,368.17,849.57,368.17,940.49Zm24.63,0c0-77.57,64-140.45,143-140.45s143,62.88,143,140.45-64,140.44-143,140.44S392.8,1018.05,392.8,940.49Z"/>
            <path class="cls-3" d="M690.73,960.24h-.07a.49.49,0,0,1-.42-.54c.5-3.85.84-7.78,1-11.68a.46.46,0,0,1,.51-.46.5.5,0,0,1,.46.51c-.2,3.92-.55,7.88-1,11.76A.49.49,0,0,1,690.73,960.24Zm-1.15-46a.48.48,0,0,1-.48-.4,150,150,0,0,0-9-30.63,153.28,153.28,0,0,0-56.33-68.76,158.11,158.11,0,0,0-171.58-2.87.49.49,0,0,1-.67-.16.5.5,0,0,1,.15-.67,159.11,159.11,0,0,1,172.65,2.9,154.26,154.26,0,0,1,56.68,69.19,151.12,151.12,0,0,1,9,30.83.48.48,0,0,1-.39.56Z"/>
            <path class="cls-65" d="M926,1088.4l-28.85-2.35-12.5,11.52s3,4.09,12.2,1.74,21.9-2.93,21.9-2.93,12.76,5.76,12.92-5Z"/>
            <path class="cls-66" d="M702.51,1043.43c-2.5,2-11-2.12-16.28-4.93a6,6,0,0,1-2.91-7.11c1.26-4,3.36-9.1,5.94-9.74C693.55,1020.57,712.79,1035.4,702.51,1043.43Z"/>
            <path class="cls-3" d="M975.3,1157.88a.49.49,0,0,1-.16-1c8.89-3.07,13.54-8.08,13.84-14.9a16.54,16.54,0,0,0-10.82-15.92l-36.64-14.29a.48.48,0,1,1,.35-.9l36.64,14.29A17.52,17.52,0,0,1,990,1142.08c-.32,7.25-5.19,12.55-14.49,15.77A.45.45,0,0,1,975.3,1157.88Z"/>
            <path class="cls-3" d="M930.4,1107.45l-.18,0-4.75-1.85a.48.48,0,0,1-.27-.63.5.5,0,0,1,.63-.28l4.75,1.85a.49.49,0,0,1-.18.94Z"/>
            <g>
              <path class="cls-67" d="M796.81,841.68s-9.86,22.65-10.52,34.54-3.22,19.6,10.52,22,25.32-4.45,31.6-16.29c0,0,9.82-18.25,7.62-25.72S796.81,841.68,796.81,841.68Z"/>
              <path class="cls-68" d="M823.71,873.41H822s7.16-14.69.87-17.27-31.21-7.66-36.58-16.5c-5.19-8.52-.56-19.53,6.35-22.62a.94.94,0,0,1,1.18.44l.57,1.08a.93.93,0,0,0,1.72-.17h0a.93.93,0,0,1,1.68-.26c1.64,2.64,6.1,6.94,18,9.15,17,3.13,28.17,10,28.45,21.71a.93.93,0,0,0,1.44.77c1.25-.77,3.26-1.12,5.93,1.13,4.66,3.91,2.75,14.07-7.45,22.43a.92.92,0,0,0,0,1.49c1.85,1.21,4.61,4.07-2.54,7.89-7.31,3.91-11.64,3.49-13.27,3.07a.93.93,0,0,1-.71-1l.64-10.38a.92.92,0,0,0-.93-1Z"/>
              <path class="cls-69" d="M823.28,875.58s3.76-14.47,10.25-10.41-3.37,16.21-8.58,16.75Z"/>
            </g>
          </g>
          <polygon class="cls-70" points="463.72 915.04 520.76 959.44 630.28 869.67 658.54 901.93 520.76 1046.09 432.49 949.39 463.72 915.04"/>
        </g>
        <path class="cls-71" d="M1848.8,311.41c-76.18-2-453-14.05-530.36-16.52-7.63-.24-13.88,10.95-13.88,24.85V384c0,13.73,6.11,24.85,13.65,24.85H1848.6c7.54,0,13.65-11.12,13.65-24.85V336.26C1862.25,322.68,1856.27,311.61,1848.8,311.41Z"/>
        <path class="cls-72" d="M1344.47,393.31,1364.16,383a5.28,5.28,0,0,1,4.89,0l19.65,10.38a5.26,5.26,0,0,0,7.63-5.53l-3.73-21.91a5.24,5.24,0,0,1,1.52-4.64l15.94-15.49a5.25,5.25,0,0,0-2.9-9l-22-3.23a5.23,5.23,0,0,1-3.94-2.88l-9.81-19.94a5.25,5.25,0,0,0-9.42,0l-9.86,19.91a5.27,5.27,0,0,1-4,2.87l-22,3.16a5.25,5.25,0,0,0-2.92,8.95l15.89,15.53a5.23,5.23,0,0,1,1.5,4.65l-3.79,21.9A5.25,5.25,0,0,0,1344.47,393.31Z"/>
        <path class="cls-73" d="M1446.05,396.21l19.68-10.31a5.25,5.25,0,0,1,4.89,0l19.65,10.37a5.25,5.25,0,0,0,7.63-5.52l-3.73-21.91a5.24,5.24,0,0,1,1.52-4.64l15.94-15.49a5.25,5.25,0,0,0-2.9-9l-22-3.23a5.25,5.25,0,0,1-4-2.88L1473,313.7a5.24,5.24,0,0,0-9.41,0l-9.87,19.91a5.24,5.24,0,0,1-4,2.86l-22,3.17a5.25,5.25,0,0,0-2.93,8.95l15.89,15.53a5.23,5.23,0,0,1,1.5,4.65l-3.78,21.9A5.25,5.25,0,0,0,1446.05,396.21Z"/>
        <path class="cls-74" d="M1548.5,396.78l19.69-10.31a5.25,5.25,0,0,1,4.89,0l19.65,10.37a5.25,5.25,0,0,0,7.63-5.52l-3.73-21.91a5.24,5.24,0,0,1,1.52-4.64l15.94-15.49a5.25,5.25,0,0,0-2.9-9l-22-3.23a5.27,5.27,0,0,1-4-2.88l-9.8-19.94a5.25,5.25,0,0,0-9.42,0l-9.86,19.91a5.24,5.24,0,0,1-4,2.86l-22,3.17a5.25,5.25,0,0,0-2.92,8.95l15.89,15.53a5.23,5.23,0,0,1,1.5,4.65l-3.79,21.9A5.25,5.25,0,0,0,1548.5,396.78Z"/>
        <path class="cls-75" d="M1648,397.94l19.68-10.31a5.25,5.25,0,0,1,4.89,0L1692.18,398a5.25,5.25,0,0,0,7.63-5.52l-3.72-21.91a5.26,5.26,0,0,1,1.51-4.65l15.94-15.48a5.25,5.25,0,0,0-2.9-9l-22-3.23a5.25,5.25,0,0,1-4-2.88l-9.81-19.94a5.24,5.24,0,0,0-9.41,0l-9.87,19.91a5.21,5.21,0,0,1-4,2.87l-22,3.16a5.25,5.25,0,0,0-2.92,8.95l15.88,15.54a5.26,5.26,0,0,1,1.51,4.65l-3.79,21.9A5.25,5.25,0,0,0,1648,397.94Z"/>
        <g>
          <path class="cls-76" d="M1756.5,1417.51a6.12,6.12,0,0,0,6.19-4.67l97.7-517.21c.58-3.06-1.72-6-5.14-6.47s-6.67,1.54-7.24,4.6L1750.3,1411c-.58,3,1.73,6,5.15,6.46A6.27,6.27,0,0,0,1756.5,1417.51Z"/>
          <path class="cls-77" d="M2086.13,1417.52a6.51,6.51,0,0,0,1.24-.12c3.4-.61,5.61-3.57,4.92-6.61L1977.11,900.31c-.68-3-4-5-7.4-4.39s-5.6,3.57-4.91,6.61L2080,1413A6.16,6.16,0,0,0,2086.13,1417.52Z"/>
          <path class="cls-78" d="M1831.06,1023.44h167c3.47,0,6.28-2.51,6.28-5.61s-2.81-5.61-6.28-5.61h-167c-3.47,0-6.29,2.51-6.29,5.61S1827.59,1023.44,1831.06,1023.44Z"/>
          <path class="cls-79" d="M1834.08,1023.44H1995a5.63,5.63,0,1,0,0-11.22H1834.08a5.63,5.63,0,1,0,0,11.22Z"/>
          <path class="cls-80" d="M1831.06,1117h167c3.47,0,6.28-2.51,6.28-5.61s-2.81-5.61-6.28-5.61h-167c-3.47,0-6.29,2.51-6.29,5.61S1827.59,1117,1831.06,1117Z"/>
          <path class="cls-81" d="M1815.89,1117h202.43c3.47,0,6.28-2.51,6.28-5.61s-2.81-5.61-6.28-5.61H1815.89c-3.46,0-6.28,2.51-6.28,5.61S1812.43,1117,1815.89,1117Z"/>
          <path class="cls-82" d="M1831.06,1210.48h167c3.47,0,6.28-2.51,6.28-5.61s-2.81-5.61-6.28-5.61h-167c-3.47,0-6.29,2.51-6.29,5.61S1827.59,1210.48,1831.06,1210.48Z"/>
          <path class="cls-83" d="M1796.56,1210.48h242.3c3.47,0,6.28-2.51,6.28-5.61s-2.81-5.61-6.28-5.61h-242.3c-3.47,0-6.28,2.51-6.28,5.61S1793.09,1210.48,1796.56,1210.48Z"/>
          <path class="cls-84" d="M1831.06,1304h227.28c3.47,0,6.28-2.51,6.28-5.61s-2.81-5.61-6.28-5.61H1831.06c-3.47,0-6.29,2.51-6.29,5.61S1827.59,1304,1831.06,1304Z"/>
          <path class="cls-85" d="M1780.92,1304h277.42c3.47,0,6.28-2.51,6.28-5.61s-2.81-5.61-6.28-5.61H1780.92c-3.47,0-6.28,2.51-6.28,5.61S1777.45,1304,1780.92,1304Z"/>
        </g>
        <g>
          <path class="cls-86" d="M595.29,595.27l-7.19-31.59H555.47l-7.19,31.59H525l31-125.7h31.59l31.09,125.7ZM583.73,543l-6.68-29.11q-.6-2.65-2.7-13.32t-2.52-14.26q-1.11,7.36-2.83,16.23T560.1,543Z"/>
          <path class="cls-87" d="M698,508.62q0,19.95-10.06,30.61t-29.07,10.66H653v45.38h-23.3V470.08h31.77Q698,470.08,698,508.62Zm-45,21.06h4.45q8.56,0,12.76-4.71t4.19-15.41q0-9.85-3.85-14.6t-11.9-4.75H653Z"/>
          <path class="cls-88" d="M782,508.62q0,19.95-10.06,30.61t-29.07,10.66H737v45.38H713.72V470.08h31.77Q782,470.08,782,508.62Zm-45,21.06h4.45q8.56,0,12.76-4.71t4.2-15.41q0-9.85-3.86-14.6t-11.9-4.75H737Z"/>
          <path class="cls-89" d="M821,546.55v48.72H797.72V470.08H828.2q19.37,0,28.56,9.16t9.21,28q0,23.71-16,33.13L874,595.27H849.1l-19.78-48.72Zm0-20h6q8.22,0,11.81-4.66t3.6-13.92q0-9.58-3.81-13.66t-11.78-4.06H821Z"/>
          <path class="cls-90" d="M971.55,532.51q0,31.08-11.65,47.78T926.59,597q-21.75,0-33.39-16.66t-11.65-48q0-31.1,11.65-47.66t33.57-16.57q21.66,0,33.22,16.66T971.55,532.51Zm-66.19,0q0,21.4,5.39,32.62t15.84,11.22q21.07,0,21.07-43.84t-20.89-43.85q-10.62,0-16,11.18T905.36,532.51Z"/>
          <path class="cls-91" d="M1043.65,470.08h23.46l-29.45,125.19H1008L978.74,470.08h23.47l16.35,76.47q2.22,9.76,4.37,28,1.8-15.49,4.54-28Z"/>
          <path class="cls-92" d="M1134.59,595.27h-56.43V470.08h56.43v20.13h-33.14V520h30.74v20.2h-30.74v34.68h33.14Z"/>
          <path class="cls-93" d="M1232.47,531.48q0,31-12.64,47.4t-36.35,16.39h-30.65V470.08h33.48q21.84,0,34,16.14T1232.47,531.48Zm-23.9.68q0-42-23.12-41.95h-9.33v84.68h7.54q12.75,0,18.83-10.66T1208.57,532.16Z"/>
        </g>
        <g>
          <g>
            <path class="cls-8" d="M954,846.75a5.69,5.69,0,0,1-5.45-2.59l-6.75-10.54a68.84,68.84,0,0,1-17.38-2.72l-9.66,8a5.67,5.67,0,0,1-6.59.47L892.88,830a5.69,5.69,0,0,1-2.59-6.09L893,811.72a69.17,69.17,0,0,1-10.38-14.21l-12.46-1.18a5.7,5.7,0,0,1-5-4.32l-4.22-17.42a5.7,5.7,0,0,1,2.46-6.13l10.54-6.75a69.68,69.68,0,0,1,2.72-17.38l-8-9.65a5.69,5.69,0,0,1-.47-6.59l9.33-15.3a5.68,5.68,0,0,1,6.07-2.59l12.24,2.68A69.17,69.17,0,0,1,910,702.5L911.22,690a5.69,5.69,0,0,1,4.32-5L933,680.83a5.69,5.69,0,0,1,6.13,2.45l6.75,10.55a69.61,69.61,0,0,1,17.38,2.72l9.66-8a5.71,5.71,0,0,1,6.58-.48l15.3,9.34a5.7,5.7,0,0,1,2.6,6.07l-2.68,12.24A69.5,69.5,0,0,1,1005,730l12.46,1.18a5.7,5.7,0,0,1,5,4.32l4.21,17.41a5.68,5.68,0,0,1-2.46,6.14l-10.54,6.75a69.29,69.29,0,0,1-2.72,17.38l8,9.65a5.7,5.7,0,0,1,.48,6.59l-9.33,15.29a5.69,5.69,0,0,1-6.07,2.6l-12.24-2.68A70,70,0,0,1,977.6,825l-1.18,12.46a5.71,5.71,0,0,1-4.32,5l-17.42,4.22C954.45,846.68,954.23,846.72,954,846.75Zm-31.52-25.83,2.34.77a60.76,60.76,0,0,0,19.4,3l2.47,0,8.13,12.7,12.93-3.13,1.42-15,2.2-1.11a60.73,60.73,0,0,0,15.86-11.58l1.72-1.75,14.75,3.23,6.92-11.36L1001,785.06l.77-2.34a60.66,60.66,0,0,0,3-19.4v-2.46l12.7-8.14-3.14-12.92-15-1.43-1.11-2.19a60.57,60.57,0,0,0-11.58-15.86l-1.75-1.73,3.23-14.74-11.36-6.93-11.63,9.62-2.34-.77a60.4,60.4,0,0,0-19.4-3l-2.46,0-8.14-12.7-12.93,3.13-1.42,15-2.2,1.11a60.48,60.48,0,0,0-15.85,11.57l-1.73,1.76-14.74-3.23L877,730.77l9.62,11.63-.77,2.34a60.35,60.35,0,0,0-3,19.4l0,2.46-12.7,8.13,3.13,12.93,15,1.42,1.11,2.2A60.57,60.57,0,0,0,901,807.14l1.76,1.73-3.23,14.74,11.35,6.93ZM909.08,832h0ZM899,825.85h0Zm-1.49-3.44h0Zm-12.38-105h0ZM949,810.94a47.68,47.68,0,1,1,42.21-48.55,4.46,4.46,0,1,1-8.92.23,38.79,38.79,0,1,0-11.59,28.59,4.47,4.47,0,1,1,6.27,6.36,47.65,47.65,0,0,1-22.21,12.34A48.35,48.35,0,0,1,949,810.94Z"/>
            <path class="cls-8" d="M946.19,784a20.38,20.38,0,1,1,15.65-29.74h0A20.4,20.4,0,0,1,946.19,784Zm-3.71-31.62a11.57,11.57,0,0,0-4,1.25,11.44,11.44,0,1,0,15.46,4.79h0a11.5,11.5,0,0,0-11.46-6Z"/>
          </g>
          <path class="cls-8" d="M813.5,746.64a3.71,3.71,0,0,1-1.44-.1l-8.34-2.16a3.92,3.92,0,0,1-2.94-3.49l-.43-5.39a34.18,34.18,0,0,1-6-4.51l-5.28,1.08a3.93,3.93,0,0,1-4.17-1.85l-4.38-7.44a3.91,3.91,0,0,1,.4-4.55l3.49-4.1a35.11,35.11,0,0,1-1-7.43l-4.5-3a4,4,0,0,1-1.63-4.28l2.15-8.34a4,4,0,0,1,3.51-2.94l5.37-.42a34.8,34.8,0,0,1,4.51-6l-1.07-5.28a3.94,3.94,0,0,1,1.86-4.18l7.42-4.37a3.93,3.93,0,0,1,4.57.4l4.09,3.49a34.92,34.92,0,0,1,7.42-1l3-4.5a3.94,3.94,0,0,1,4.27-1.63l8.34,2.15a3.94,3.94,0,0,1,2.94,3.49l.43,5.39a35.19,35.19,0,0,1,6,4.51l5.28-1.07A3.94,3.94,0,0,1,851.5,681l4.36,7.4a3.92,3.92,0,0,1-.39,4.54l-3.5,4.12a34.37,34.37,0,0,1,1,7.42l4.5,3a3.94,3.94,0,0,1,1.64,4.28L857,720.07A3.93,3.93,0,0,1,853.5,723l-5.4.43a34.62,34.62,0,0,1-4.5,6l1.07,5.28a3.93,3.93,0,0,1-1.85,4.17l-7.43,4.38a3.92,3.92,0,0,1-4.57-.41l-4.09-3.49a34.49,34.49,0,0,1-7.43,1l-3,4.49A3.89,3.89,0,0,1,813.5,746.64Zm-2.75-5.44v0Zm24.41-3.45v0Zm-3.17-.26h0Zm-24.7.91,4.54,1.17,3.9-5.89,1.85,0a27.81,27.81,0,0,0,9-1.26l1.76-.55,5.37,4.59,4-2.38-1.41-6.92,1.34-1.28a28.18,28.18,0,0,0,5.45-7.23l.85-1.64,7-.56,1.17-4.53-5.89-3.9,0-1.85a27.77,27.77,0,0,0-1.26-9l-.55-1.76,4.59-5.37-2.38-4-6.92,1.4-1.28-1.33a27.79,27.79,0,0,0-7.23-5.45l-1.64-.86-.55-7-4.54-1.17-3.91,5.89-1.84,0a28,28,0,0,0-9,1.25l-1.76.55-5.37-4.58-4,2.38,1.41,6.92-1.34,1.27a27.83,27.83,0,0,0-5.45,7.24l-.86,1.63-7,.56-1.17,4.54,5.89,3.9,0,1.85a27.71,27.71,0,0,0,1.26,9l.54,1.77-4.58,5.37,2.38,4,6.92-1.41,1.28,1.34a27.75,27.75,0,0,0,7.23,5.44l1.63.86ZM838.11,736h0ZM786,722.57h0Zm.27-3.19h0Zm66.37-9.33v0Zm-2.57-18.25h0Zm-1.43-6.12h0Zm-2.94-1.3,0,0Zm2.26-2h0Zm-51-4.34h0Zm34-4.78h0Zm-8.33-2.15Zm-21.45,2.29h0Zm19.63,56.13a24.24,24.24,0,0,1-8.87-.62,24.14,24.14,0,1,1,26.84-35.62,24.38,24.38,0,0,1,2.13,4.68,3.35,3.35,0,1,1-6.36,2.1,17.7,17.7,0,0,0-1.53-3.38,17.45,17.45,0,1,0-19.4,25.74,17.46,17.46,0,0,0,19.68-8.53,3.35,3.35,0,1,1,5.88,3.2,24.22,24.22,0,0,1-18.37,12.43Z"/>
        </g>
        <g>
          <path class="cls-94" d="M1776,455.25l37.85-23.64a10.55,10.55,0,0,1,9.79-.72l40.93,17.78A10.54,10.54,0,0,0,1879,436.45l-10.78-43.31a10.54,10.54,0,0,1,2.33-9.53l29.56-33.43a10.55,10.55,0,0,0-7.16-17.51l-44.52-3.12a10.56,10.56,0,0,1-8.34-5.17l-22.67-38.44a10.55,10.55,0,0,0-18.86,1.4l-16.73,41.37a10.56,10.56,0,0,1-7.49,6.35l-43.56,9.67a10.54,10.54,0,0,0-4.5,18.37l34.18,28.7a10.53,10.53,0,0,1,3.72,9.08l-4.27,44.42A10.55,10.55,0,0,0,1776,455.25Z"/>
          <g>
            <path class="cls-95" d="M1868.67,426.32s-62.08,79.48,8.75,160.31l26.62-2.48c-1.53.14-7.87-14.31-8.5-15.57a274.71,274.71,0,0,1-16.43-40.29c-5.42-17.18-9.09-35.1-9.34-53.16a122.38,122.38,0,0,1,2.68-27.72c1.15-5.2,3.09-9.2,8.24-11.33,5.59-2.31,10.7-6.2,13.5-11.56a20.37,20.37,0,0,0-9.63-28c-1.66-.8-14.48-3.76-14.48-1.57,0,5.08,3.16,9.52,5.22,14.15C1879.17,417.76,1875.78,422,1868.67,426.32Z"/>
            <path class="cls-96" d="M1902.66,815.43s50.3,109.61,76.68,155c0,0,5.25,28.56,0,37.55l-4.46,2,20.84-.62s1.85-38.42.41-40.57a5.31,5.31,0,0,0-4.34-2S1982.85,896,1957,880.86l-25.09-86.4Z"/>
            <path class="cls-97" d="M1966,1015.36c0,.51,16.27.28,25.13.12a7.05,7.05,0,0,0,6.76-5.56l6.69-35.15a6.33,6.33,0,0,0-4.8-7.34l-3.74-.85s-5.32,7.31-3.65,14.18,3.17,24.71-1.06,26.78-16.43,2.44-16.43,2.44S1966.25,1010.84,1966,1015.36Z"/>
            <path class="cls-98" d="M1855,1016a1.84,1.84,0,0,0,.92,3.44c14.83-.15,48-.62,51-1.84,3.81-1.59-1.39-15.28-6.86-19.92l-30.22,9.86Z"/>
            <path class="cls-99" d="M1845.62,808.44s32.5,157.22,41.69,187.89L1865.56,1010s10.9-1.85,19-2.44,15.52-9.86,15.52-9.86l-2.61-4.15s-8.15-156.37-6.16-174.13Z"/>
            <path class="cls-100" d="M1832.33,559.16c12.45,3.45,54.66,14.56,81,14.1l-16.18,91.29,1.29,14.89-52.75-.24s-14.84-34.48-26.56-51.67c-3.38-5-.86-10.89,1-16.58l-2.63-1.76a7.16,7.16,0,0,1-2.84-8.19l12.84-39.3A3.92,3.92,0,0,1,1832.33,559.16Z"/>
            <path class="cls-101" d="M1841.48,671.41l1,9s-14.9,44.64,7.46,148.9c0,0,48.42,13.71,88.22-19.11,0,0-11.23-98.4-14.3-103-15.27-22.83-25.44-27.79-25.44-27.79l-.46-9.85S1855.42,677.28,1841.48,671.41Z"/>
            <path class="cls-102" d="M1862.12,566.52c-.18-.25,11-33.81,11-33.81l16,1.46,6.27,38.07S1870.3,577.31,1862.12,566.52Z"/>
            <path class="cls-103" d="M1885.33,479.79c-1.07.67-34.27,14.39-27.13,48.86a6.48,6.48,0,0,0,3.68,4.61,56.32,56.32,0,0,0,27.9,4.62c17.39-1.77,28.79-32.12,28.31-40.95S1895.93,473.19,1885.33,479.79Z"/>
            <path class="cls-104" d="M1895.44,466.39c-.88.12-19.19,6.49-10.11,19.76s12.49,21.09,8.2,26.91c-3.92,5.31-12.59,2.29-11.83,13.33a6.21,6.21,0,0,1-2.64,5.6c-8.17,5.53-28.1,22.55-8.35,46.83a6.19,6.19,0,0,1,.69,6.92c-5.78,10.37-17.93,40.76,26,57.62,43.47,16.65,59.16-11.76,63.54-23.11a6.07,6.07,0,0,1,6-3.84c4.77.23,11.54-.57,11.23-6.95-.19-3.87-2.61-7.35-5.47-10.13a6.06,6.06,0,0,1,1.17-9.54,11.86,11.86,0,0,0,5.86-7.36c2.63-9.76-2.63-38.95-30.6-43.89-2.33-.42-4.78-2.6-5.12-4.95,0,0,0-.07,0-.1a6,6,0,0,1,2.24-6c4.47-3.28,10.2-9.87,5.55-20.45-4.13-9.38-12-12.55-17.92-13.56a6.1,6.1,0,0,1-5-7.28C1930.91,476.92,1929.18,462,1895.44,466.39Z"/>
            <path class="cls-105" d="M1764.94,441.71s-4.48,81.78,70,123.58L1817,606.18s-67.41-40.78-64.92-152a12.88,12.88,0,0,0-3.17-8.7l-14.32-16.63a25.7,25.7,0,0,1-5.47-23l1.88-7.54a3.91,3.91,0,0,1,5.76-2.43l1.5.87a26.36,26.36,0,0,1,10.8,12l7.19,11.36c2.63,5.87,3.24,8.34,9.65,7.78l11.93.14Z"/>
          </g>
        </g>
      </g>
    </g>
  </g>
</svg>
